<svg width="29" height="26" viewBox="0 0 29 26" fill="none" xmlns="http://www.w3.org/2000/svg">
<path d="M27.6818 18.1786H24.8082C24.9616 17.7622 25.0419 17.3231 25.0455 16.8801V10.3878C25.0455 9.35465 24.6288 8.36384 23.8872 7.63331C23.1456 6.90277 22.1397 6.49236 21.0909 6.49236H13.1818C12.133 6.49236 11.1272 6.90277 10.3855 7.63331C9.64391 8.36384 9.22727 9.35465 9.22727 10.3878V16.8801C9.23084 17.3231 9.31108 17.7622 9.46455 18.1786H7.90909C7.55949 18.1786 7.2242 18.0418 6.977 17.7983C6.72979 17.5548 6.59091 17.2245 6.59091 16.8801V3.89542C6.59091 2.86229 6.17427 1.87147 5.43265 1.14094C4.69103 0.410409 3.68517 0 2.63636 0H1.31818C0.968578 0 0.633294 0.136803 0.386086 0.380314C0.138879 0.623825 0 0.954096 0 1.29847C0 1.64285 0.138879 1.97312 0.386086 2.21663C0.633294 2.46014 0.968578 2.59695 1.31818 2.59695H2.63636C2.98597 2.59695 3.32125 2.73375 3.56846 2.97726C3.81567 3.22077 3.95455 3.55104 3.95455 3.89542V16.8801C3.95941 17.7331 4.24834 18.5609 4.77699 19.2365C5.30564 19.912 6.04477 20.398 6.88091 20.6197C6.63814 21.2048 6.54353 21.8392 6.60523 22.4683C6.66693 23.0974 6.8831 23.7022 7.23507 24.2306C7.58704 24.759 8.06425 25.1952 8.62552 25.5014C9.1868 25.8076 9.81527 25.9746 10.4567 25.9882C11.0982 26.0017 11.7334 25.8613 12.3074 25.5791C12.8815 25.2968 13.3772 24.8813 13.7519 24.3682C14.1265 23.8551 14.3688 23.2599 14.4578 22.634C14.5468 22.0081 14.4798 21.3703 14.2627 20.7756H18.6918C18.475 21.3639 18.4054 21.9951 18.4887 22.6156C18.5721 23.2362 18.806 23.8278 19.1707 24.3403C19.5354 24.8529 20.0202 25.2714 20.5839 25.5603C21.1476 25.8492 21.7737 26 22.4091 26C23.0445 26 23.6706 25.8492 24.2343 25.5603C24.798 25.2714 25.2827 24.8529 25.6474 24.3403C26.0121 23.8278 26.2461 23.2362 26.3295 22.6156C26.4128 21.9951 26.3432 21.3639 26.1264 20.7756H27.6818C28.0314 20.7756 28.3667 20.6388 28.6139 20.3953C28.8611 20.1517 29 19.8215 29 19.4771C29 19.1327 28.8611 18.8024 28.6139 18.5589C28.3667 18.3154 28.0314 18.1786 27.6818 18.1786ZM10.5455 23.3725C10.2847 23.3725 10.0299 23.2964 9.81311 23.1537C9.59634 23.011 9.42738 22.8082 9.32761 22.5709C9.22784 22.3337 9.20174 22.0726 9.2526 21.8207C9.30346 21.5688 9.42901 21.3375 9.61336 21.1559C9.79771 20.9743 10.0326 20.8506 10.2883 20.8005C10.544 20.7504 10.809 20.7761 11.0499 20.8744C11.2908 20.9727 11.4966 21.1391 11.6415 21.3526C11.7863 21.5662 11.8636 21.8172 11.8636 22.074C11.8636 22.4184 11.7248 22.7487 11.4776 22.9922C11.2303 23.2357 10.8951 23.3725 10.5455 23.3725ZM13.1818 18.1786C12.8322 18.1786 12.4969 18.0418 12.2497 17.7983C12.0025 17.5548 11.8636 17.2245 11.8636 16.8801V10.3878C11.8636 10.0434 12.0025 9.71313 12.2497 9.46962C12.4969 9.22611 12.8322 9.08931 13.1818 9.08931H21.0909C21.4405 9.08931 21.7758 9.22611 22.023 9.46962C22.2702 9.71313 22.4091 10.0434 22.4091 10.3878V16.8801C22.4091 17.2245 22.2702 17.5548 22.023 17.7983C21.7758 18.0418 21.4405 18.1786 21.0909 18.1786H13.1818ZM22.4091 23.3725C22.1484 23.3725 21.8935 23.2964 21.6767 23.1537C21.46 23.011 21.291 22.8082 21.1912 22.5709C21.0915 22.3337 21.0654 22.0726 21.1162 21.8207C21.1671 21.5688 21.2926 21.3375 21.477 21.1559C21.6613 20.9743 21.8962 20.8506 22.1519 20.8005C22.4076 20.7504 22.6727 20.7761 22.9135 20.8744C23.1544 20.9727 23.3603 21.1391 23.5051 21.3526C23.65 21.5662 23.7273 21.8172 23.7273 22.074C23.7273 22.4184 23.5884 22.7487 23.3412 22.9922C23.094 23.2357 22.7587 23.3725 22.4091 23.3725Z" fill="#292B32"/>
</svg>
