<svg width="26" height="26" viewBox="0 0 26 26" fill="none" xmlns="http://www.w3.org/2000/svg">
<path d="M24.7 0H1.3C0.955218 0 0.624558 0.136964 0.380761 0.380761C0.136964 0.624558 0 0.955218 0 1.3V24.7C0 25.0448 0.136964 25.3754 0.380761 25.6192C0.624558 25.863 0.955218 26 1.3 26H9.1C9.44478 26 9.77544 25.863 10.0192 25.6192C10.263 25.3754 10.4 25.0448 10.4 24.7V10.4H24.7C25.0448 10.4 25.3754 10.263 25.6192 10.0192C25.863 9.77544 26 9.44478 26 9.1V1.3C26 0.955218 25.863 0.624558 25.6192 0.380761C25.3754 0.136964 25.0448 0 24.7 0ZM23.4 7.8H20.8V6.5C20.8 6.15522 20.663 5.82456 20.4192 5.58076C20.1754 5.33696 19.8448 5.2 19.5 5.2C19.1552 5.2 18.8246 5.33696 18.5808 5.58076C18.337 5.82456 18.2 6.15522 18.2 6.5V7.8H15.6V6.5C15.6 6.15522 15.463 5.82456 15.2192 5.58076C14.9754 5.33696 14.6448 5.2 14.3 5.2C13.9552 5.2 13.6246 5.33696 13.3808 5.58076C13.137 5.82456 13 6.15522 13 6.5V7.8H10.4V6.5C10.4 6.15522 10.263 5.82456 10.0192 5.58076C9.77544 5.33696 9.44478 5.2 9.1 5.2C8.75522 5.2 8.42456 5.33696 8.18076 5.58076C7.93696 5.82456 7.8 6.15522 7.8 6.5V7.8H6.5C6.15522 7.8 5.82456 7.93696 5.58076 8.18076C5.33696 8.42456 5.2 8.75522 5.2 9.1C5.2 9.44478 5.33696 9.77544 5.58076 10.0192C5.82456 10.263 6.15522 10.4 6.5 10.4H7.8V13H6.5C6.15522 13 5.82456 13.137 5.58076 13.3808C5.33696 13.6246 5.2 13.9552 5.2 14.3C5.2 14.6448 5.33696 14.9754 5.58076 15.2192C5.82456 15.463 6.15522 15.6 6.5 15.6H7.8V18.2H6.5C6.15522 18.2 5.82456 18.337 5.58076 18.5808C5.33696 18.8246 5.2 19.1552 5.2 19.5C5.2 19.8448 5.33696 20.1754 5.58076 20.4192C5.82456 20.663 6.15522 20.8 6.5 20.8H7.8V23.4H2.6V2.6H23.4V7.8Z" fill="#292B32"/>
</svg>
